<svg xmlns="http://www.w3.org/2000/svg" viewBox="0 0 512 512" width="512" height="512" role="img" aria-label="RMC">
  <defs>
    <mask id="cutf" maskUnits="userSpaceOnUse">
      <rect x="0" y="0" width="720" height="210" fill="white"></rect>
      <path d="M315,178 L325,116 L335,178 Z" fill="black"></path>
      <path d="M162.7,178 L143,164.6 L147.6,158 L167.3,171.7 Z" fill="black"></path>
    </mask>
  </defs>
  <rect x="0" y="0" width="512" height="512" rx="104" fill="#15171a"></rect>
  <g transform="translate(11.8,173.3) scale(0.748)">
    <g mask="url(#cutf)" fill="none" stroke="#eef1f2" stroke-width="26" stroke-linecap="butt" stroke-linejoin="miter" stroke-miterlimit="14">
      <path d="M52,35 V175"></path>
      <path d="M52,35 H128 A40,40 0 0 1 128,109 H52"></path>
      <path d="M70,109 L165,175"></path>
      <path d="M222,35 V175"></path>
      <path d="M428,35 V175"></path>
      <path d="M222,35 L325,165 L428,35"></path>
      <path d="M601,72 A57,57 0 1 0 601,138"></path>
    </g>
  </g>
</svg>
